<svg width="25" height="25" viewBox="0 0 25 25" fill="none" xmlns="http://www.w3.org/2000/svg">
     <path fill-rule="evenodd" clip-rule="evenodd"
          d="M17.1605 2.5H20.4271C21.7786 2.5 22.875 3.6059 22.875 4.97018V8.2641C22.875 9.62735 21.7786 10.7343 20.4271 10.7343H17.1605C15.8079 10.7343 14.7115 9.62735 14.7115 8.2641V4.97018C14.7115 3.6059 15.8079 2.5 17.1605 2.5Z"
          stroke="white" stroke-width="1.5" stroke-linecap="round" stroke-linejoin="round" />
     <path fill-rule="evenodd" clip-rule="evenodd"
          d="M5.32392 2.5H8.58949C9.94203 2.5 11.0384 3.6059 11.0384 4.97018V8.2641C11.0384 9.62735 9.94203 10.7343 8.58949 10.7343H5.32392C3.97138 10.7343 2.875 9.62735 2.875 8.2641V4.97018C2.875 3.6059 3.97138 2.5 5.32392 2.5Z"
          stroke="white" stroke-width="1.5" stroke-linecap="round" stroke-linejoin="round" />
     <path fill-rule="evenodd" clip-rule="evenodd"
          d="M5.32392 14.2656H8.58949C9.94203 14.2656 11.0384 15.3715 11.0384 16.7368V20.0297C11.0384 21.394 9.94203 22.4999 8.58949 22.4999H5.32392C3.97138 22.4999 2.875 21.394 2.875 20.0297V16.7368C2.875 15.3715 3.97138 14.2656 5.32392 14.2656Z"
          stroke="white" stroke-width="1.5" stroke-linecap="round" stroke-linejoin="round" />
     <path fill-rule="evenodd" clip-rule="evenodd"
          d="M17.1605 14.2656H20.4271C21.7786 14.2656 22.875 15.3715 22.875 16.7368V20.0297C22.875 21.394 21.7786 22.4999 20.4271 22.4999H17.1605C15.8079 22.4999 14.7115 21.394 14.7115 20.0297V16.7368C14.7115 15.3715 15.8079 14.2656 17.1605 14.2656Z"
          stroke="white" stroke-width="1.5" stroke-linecap="round" stroke-linejoin="round" />
</svg>